<svg width="28" height="28" viewBox="0 0 28 28" fill="none" xmlns="http://www.w3.org/2000/svg">
<path d="M25.3238 6.17281L21.825 2.67515C21.7168 2.5666 21.5883 2.48051 21.4467 2.42185C21.3052 2.36318 21.1534 2.33309 21.0002 2.33331H7.00017C6.84693 2.33309 6.69517 2.36318 6.55361 2.42185C6.41205 2.48051 6.28349 2.5666 6.17533 2.67515L2.6765 6.17281C2.56749 6.28093 2.48104 6.40962 2.42216 6.55142C2.36328 6.69321 2.33315 6.84528 2.3335 6.99881V22.1666C2.3335 23.4535 3.38 24.5 4.66683 24.5H23.3335C24.6203 24.5 25.6668 23.4535 25.6668 22.1666V6.99881C25.6672 6.84528 25.637 6.69321 25.5782 6.55142C25.5193 6.40962 25.4328 6.28093 25.3238 6.17281V6.17281ZM7.48317 4.66665H20.5172L21.6827 5.83215H6.31767L7.48317 4.66665ZM4.66683 22.1666V8.16548H23.3335L23.3358 22.1666H4.66683Z" fill="#222222"/>
<path d="M17.4998 14H10.4998V11.6667H8.1665V16.3334H19.8332V11.6667H17.4998V14Z" fill="#222222"/>
</svg>
