<svg width="28" height="28" viewBox="0 0 28 28" fill="none" xmlns="http://www.w3.org/2000/svg">
<path d="M11.5556 25C11.2314 25 10.9205 24.8712 10.6913 24.642C10.4621 24.4128 10.3333 24.1019 10.3333 23.7778V20.1111H5.44444C4.79614 20.1111 4.17438 19.8536 3.71596 19.3952C3.25754 18.9367 3 18.315 3 17.6667V5.44444C3 4.79614 3.25754 4.17438 3.71596 3.71596C4.17438 3.25754 4.79614 3 5.44444 3H22.5556C23.2039 3 23.8256 3.25754 24.284 3.71596C24.7425 4.17438 25 4.79614 25 5.44444V17.6667C25 18.315 24.7425 18.9367 24.284 19.3952C23.8256 19.8536 23.2039 20.1111 22.5556 20.1111H17.5444L13.0222 24.6456C12.7778 24.8656 12.4844 25 12.1667 25H11.5556ZM12.7778 17.6667V21.4311L16.5422 17.6667H22.5556V5.44444H5.44444V17.6667H12.7778ZM7.88889 7.88889H20.1111V10.3333H7.88889V7.88889ZM7.88889 12.7778H17.6667V15.2222H7.88889V12.7778Z" fill="#222222"/>
</svg>
