<svg width="64" height="16" viewBox="0 0 64 16" fill="none" xmlns="http://www.w3.org/2000/svg">
<path d="M0.2 6.496V5.872H12.944V9.232H3.56V16H0.2V9.232V6.496ZM14.36 3.52H0.2V0.159999H14.36V3.52ZM12.7978 15.064L18.0058 5.68L20.1178 9.472L16.6858 15.688L16.5178 16H12.2938L12.7978 15.064ZM30.1258 15.064L30.6298 16H26.4058L26.2378 15.688L23.0698 9.976L21.5098 7.168L21.4618 7.072L19.3498 3.256L19.5178 2.944L20.8858 0.448L21.0538 0.111999H21.8698L22.0138 0.448L23.4058 2.944L30.1258 15.064ZM42.9654 0.183999H46.3254V16H42.9654V9.28H35.6694V16H32.3094V0.183999H35.6694V5.896H42.9654V0.183999ZM48.7625 16V7.288L52.1225 10.648V16H48.7625ZM62.2985 0.0399995H63.0185V16H59.6585V7.432L57.8825 9.232L57.1865 9.904L56.9945 10.096L56.3945 10.72L55.9385 11.152L53.6825 8.896L52.1225 7.336L48.7625 3.976V0.0399995H49.5785L52.7945 3.256L55.9385 6.4L62.2985 0.0399995Z" fill="#222222"/>
</svg>
