<svg width="24" height="24" viewBox="0 0 24 24" fill="none" xmlns="http://www.w3.org/2000/svg">
<path d="M14.8807 10.8868L14.8807 10.8868L14.8838 10.8838L18.75 7.01755V10C18.75 10.3315 18.8817 10.6495 19.1161 10.8839C19.3505 11.1183 19.6685 11.25 20 11.25C20.3315 11.25 20.6495 11.1183 20.8839 10.8839C21.1183 10.6495 21.25 10.3315 21.25 10V4C21.25 3.66848 21.1183 3.35054 20.8839 3.11612C20.6495 2.8817 20.3315 2.75 20 2.75H14C13.6685 2.75 13.3505 2.8817 13.1161 3.11612C12.8817 3.35054 12.75 3.66848 12.75 4C12.75 4.33152 12.8817 4.64946 13.1161 4.88388C13.3505 5.1183 13.6685 5.25 14 5.25H16.9824L13.1162 9.11622L13.1162 9.1162L13.1132 9.11932C12.8855 9.35507 12.7595 9.67083 12.7623 9.99857C12.7652 10.3263 12.8966 10.6398 13.1284 10.8716C13.3602 11.1034 13.6737 11.2348 14.0014 11.2377C14.3292 11.2405 14.6449 11.1145 14.8807 10.8868ZM5.25 6.25C5.25 5.69807 5.69807 5.25 6.25 5.25H10C10.3315 5.25 10.6495 5.1183 10.8839 4.88388C11.1183 4.64946 11.25 4.33152 11.25 4C11.25 3.66848 11.1183 3.35054 10.8839 3.11612C10.6495 2.8817 10.3315 2.75 10 2.75H6.25C5.32174 2.75 4.4315 3.11875 3.77513 3.77513C3.11875 4.4315 2.75 5.32174 2.75 6.25V17.75C2.75 18.6783 3.11875 19.5685 3.77513 20.2249C4.4315 20.8813 5.32174 21.25 6.25 21.25H17.75C18.6783 21.25 19.5685 20.8813 20.2249 20.2249C20.8813 19.5685 21.25 18.6783 21.25 17.75V14C21.25 13.6685 21.1183 13.3505 20.8839 13.1161C20.6495 12.8817 20.3315 12.75 20 12.75C19.6685 12.75 19.3505 12.8817 19.1161 13.1161C18.8817 13.3505 18.75 13.6685 18.75 14V17.75C18.75 18.3019 18.3019 18.75 17.75 18.75H6.25C5.69807 18.75 5.25 18.3019 5.25 17.75V6.25Z" fill="#222222" stroke="#222222" stroke-width="0.5"/>
</svg>
